PathFileType	4	(X/Y/Z)	D:\Share\Shared_Data\Ergonomics\Sit To Stand Pertubation\S3\Perturbed.trc
DataRate	CameraRate	NumFrames	NumMarkers	Units	OrigDataRate	OrigDataStartFrame	OrigNumFrames	
100	100	17	18	m	100	11497	211
Frame#	Time	R_ASIS			R_Pelvis			V_Sacral			L_Pelvis			L_ASIS			Clavical			R_Acromium			L_Acromium			Sternum			Torso			R_Thigh_Med			R_Thigh_Lat			R_Thigh			R_Shank_Med			R_Shank_Lat			R_Shank			R_Heel			R_Toe			
		X1	Y1	Z1	X2	Y2	Z2	X3	Y3	Z3	X4	Y4	Z4	X5	Y5	Z5	X6	Y6	Z6	X7	Y7	Z7	X8	Y8	Z8	X9	Y9	Z9	X10	Y10	Z10	X11	Y11	Z11	X12	Y12	Z12	X13	Y13	Z13	X14	Y14	Z14	X15	Y15	Z15	X16	Y16	Z16	X17	Y17	Z17	X18	Y18	Z18	

11497	114.96	0.0051879077	0.64490155	0.14597816	-0.10574644	0.62937	0.20118901	-0.21278923	0.62340985	0.012625787	-0.09653344	0.64730469	-0.18805013	0.010414771	0.6424353	-0.13360551	-0.028131418	1.0443734	-0.0017749561	-0.075298042	1.1005035	0.16943343	-0.072856186	1.0950389	-0.15906818	-0.00059687114	0.96831409	0.003213778	-0.021817595	1.0282428	-0.066033569	0.35046893	0.47034903	0.065624535	0.3386499	0.45227899	0.1842151	0.16825645	0.57853479	0.10542565	0.2958577	0.10764214	0.091052383	0.28242126	0.09471508	0.17227696	0.29375607	0.27379578	0.1948205	0.22212093	0.057928951	0.13371169	0.43855521	0.056614639	0.11119636
11498	114.97	0.0051372132	0.64485712	0.1459595	-0.10580457	0.62938885	0.20117075	-0.21282219	0.62352386	0.012628761	-0.096612221	0.6473139	-0.18801601	0.010383563	0.64245941	-0.13359378	-0.027432816	1.0443279	-0.0017408295	-0.074553741	1.1004204	0.1694902	-0.072113037	1.0950714	-0.15901656	-4.909825e-05	0.96820166	0.0031927025	-0.021150373	1.0281982	-0.066050774	0.35036734	0.47036786	0.065518082	0.3385686	0.45229956	0.1841116	0.16817387	0.57856781	0.10538488	0.29589026	0.1076317	0.091081184	0.28247522	0.09463752	0.17218799	0.29369089	0.27381296	0.19475481	0.22214168	0.058187317	0.13391722	0.43856577	0.056613354	0.11119719
11499	114.98	0.005077199	0.64479785	0.14596132	-0.10586758	0.62938623	0.2011577	-0.21285658	0.62363794	0.012639007	-0.096703285	0.64730377	-0.1879785	0.010373062	0.64247516	-0.13361067	-0.026633083	1.0442598	-0.0016988811	-0.073674629	1.1003409	0.16954968	-0.071228973	1.095097	-0.15896188	0.00057027048	0.96805347	0.0031811144	-0.020388115	1.0281233	-0.066055061	0.3502598	0.47037225	0.065392929	0.33848318	0.45231454	0.18399109	0.16809096	0.57859833	0.10532938	0.29590564	0.10763461	0.09106295	0.28250977	0.094596191	0.17213774	0.29361389	0.27382657	0.19467381	0.22215891	0.058336983	0.13403528	0.43857257	0.05661409	0.11119801
11500	114.99	0.0050083981	0.64473492	0.14597501	-0.10593024	0.62937756	0.20114856	-0.2128894	0.6237616	0.012652916	-0.096793083	0.6472876	-0.18794508	0.010381269	0.64250128	-0.13364342	-0.025729046	1.0441611	-0.0016466389	-0.072654968	1.1002623	0.16961348	-0.070203796	1.0951133	-0.15890115	0.0012623158	0.96786505	0.0031823726	-0.01953026	1.0280153	-0.066042999	0.35014398	0.47036493	0.06525061	0.33839142	0.45232501	0.18385536	0.16800304	0.57862598	0.10525939	0.29590622	0.10764783	0.091008064	0.28252884	0.094579933	0.17211446	0.29352661	0.27383777	0.19457765	0.22217233	0.058409328	0.13409209	0.43857584	0.056616833	0.11119839
11501	115	0.0049308257	0.64467706	0.14599109	-0.10598807	0.62937738	0.20114122	-0.21291696	0.62390308	0.012666099	-0.096869171	0.64727887	-0.18792183	0.010400406	0.64256128	-0.133674	-0.024717035	1.0440251	-0.001581352	-0.071489105	1.1001802	0.16968336	-0.06903479	1.095118	-0.15882742	0.0020298753	0.967633	0.003199594	-0.01857472	1.0278737	-0.066011749	0.35001779	0.47034924	0.065092644	0.33829202	0.4523324	0.18370683	0.16790649	0.57865088	0.10517589	0.29589804	0.10766474	0.090938042	0.28253647	0.094580215	0.17210822	0.29343198	0.2738472	0.19446738	0.22218228	0.058432018	0.13411066	0.43857584	0.056621204	0.11119795
11502	115.01	0.0048450589	0.64462903	0.14600145	-0.10603796	0.62939758	0.20113416	-0.21293567	0.62406757	0.012673803	-0.096921944	0.64728906	-0.18791286	0.010417528	0.64268103	-0.13368143	-0.023592295	1.0438494	-0.0015003372	-0.07017215	1.1000896	0.16976134	-0.067719627	1.0951085	-0.1587338	0.0028774011	0.96735498	0.0032349985	-0.017517235	1.027698	-0.065959488	0.34988043	0.47032846	0.064920715	0.33818454	0.4523385	0.18354826	0.16779897	0.57867267	0.10508053	0.29588632	0.1076804	0.09086866	0.28253635	0.094589706	0.17211119	0.29333347	0.27385529	0.19434543	0.22218921	0.058426304	0.13410858	0.438573	0.056626873	0.11119656
11503	115.02	0.004753931	0.64459021	0.14600116	-0.10607826	0.62944482	0.20112689	-0.21294278	0.62425592	0.012671684	-0.09694574	0.64732648	-0.18791957	0.010418072	0.64288452	-0.13364615	-0.022348579	1.0436337	-0.0014019595	-0.068700333	1.0999849	0.16984918	-0.06625795	1.0950817	-0.15861612	0.0038105204	0.9670296	0.0032894359	-0.016351719	1.0274895	-0.065885834	0.34973273	0.47030533	0.064736954	0.33806927	0.45234433	0.18338252	0.16767963	0.57869086	0.10497504	0.2958739	0.10769237	0.090807549	0.28253204	0.094600861	0.17211671	0.29323599	0.27386359	0.19421585	0.2221931	0.058406681	0.13409775	0.43856784	0.056633728	0.11119408
11504	115.03	0.0046637373	0.64455548	0.14598918	-0.10610834	0.62952039	0.20112022	-0.21293732	0.62446613	0.012657004	-0.096938919	0.64739514	-0.1879402	0.010390246	0.6431875	-0.13355486	-0.020978848	1.0433794	-0.0012861948	-0.067070709	1.0998602	0.16994812	-0.064650131	1.0950349	-0.15847362	0.0048353329	0.96665649	0.0033622804	-0.015071102	1.0272496	-0.065792023	0.34957776	0.4702825	0.064544441	0.33794791	0.45235028	0.18321231	0.16754918	0.57870465	0.1048607	0.29586218	0.10769964	0.090757339	0.28252664	0.094607315	0.17211894	0.29314584	0.27387515	0.19408435	0.2221935	0.05838192	0.13408502	0.438561	0.056641678	0.11119053
11505	115.04	0.0045839891	0.64451721	0.14596803	-0.10612778	0.62961969	0.2011162	-0.2129202	0.62469354	0.012629664	-0.096903404	0.64749414	-0.18797009	0.010328785	0.64359167	-0.13340433	-0.019476606	1.0430873	-0.0011544632	-0.065281029	1.0997096	0.17005844	-0.062895275	1.0949662	-0.15830774	0.0059578304	0.9662348	0.003451617	-0.01366829	1.0269807	-0.065680397	0.3494205	0.47026254	0.06434729	0.33782352	0.4523573	0.18303963	0.16741048	0.57871356	0.10473845	0.29585141	0.10770227	0.090717583	0.28252197	0.094607498	0.17211389	0.29306973	0.27389371	0.19395703	0.22218991	0.058356762	0.13407349	0.43855295	0.056650459	0.1111861
11506	115.05	0.004524889	0.64446686	0.14594322	-0.10613592	0.6297345	0.2011172	-0.21289368	0.62493323	0.012592245	-0.096843834	0.64761847	-0.18800246	0.010240085	0.6440752	-0.1332045	-0.017836479	1.0427573	-0.0010090443	-0.063330151	1.0995292	0.17018015	-0.060990631	1.0948746	-0.15812244	0.0071835918	0.96576379	0.0035545843	-0.012137024	1.0266837	-0.065553795	0.34926703	0.47024762	0.064150055	0.33770041	0.45236676	0.18286589	0.16726872	0.57871722	0.10460956	0.29584161	0.10770094	0.09068631	0.28251694	0.094605698	0.17210078	0.29301111	0.27392114	0.19383797	0.22218248	0.058333393	0.13406407	0.43854407	0.056659595	0.1111813
11507	115.06	0.0044940891	0.64439758	0.14592195	-0.10613188	0.62985498	0.20112532	-0.21285988	0.62518036	0.012549342	-0.096766281	0.64776044	-0.18802959	0.010146214	0.64458954	-0.13297993	-0.016054029	1.0423905	-0.00085246974	-0.061218037	1.0993159	0.1703125	-0.058931908	1.0947605	-0.15792491	0.0085176582	0.96524316	0.0036680167	-0.010471724	1.0263562	-0.065414963	0.34912305	0.47023795	0.063957066	0.33758292	0.45238	0.18269237	0.1671306	0.57871613	0.10447596	0.29583252	0.10769666	0.090661263	0.28250864	0.094608543	0.17208188	0.29296783	0.27395566	0.1937281	0.22217212	0.058312443	0.13405685	0.43853461	0.05666848	0.11117684
11508	115.07	0.004495801	0.64430481	0.14591109	-0.10611454	0.62997168	0.20114159	-0.2128195	0.62543225	0.012506739	-0.096676857	0.64791077	-0.18804469	0.010078055	0.64507825	-0.13276245	-0.014125585	1.0419862	-0.00068736738	-0.058944553	1.0990685	0.17045424	-0.056713093	1.0946251	-0.15772641	0.0099647026	0.96467291	0.0037890377	-0.00866642	1.0259932	-0.065266129	0.34899249	0.47023157	0.063772114	0.33747427	0.45239685	0.18252057	0.16700293	0.57871106	0.10434026	0.29582385	0.10769039	0.090640587	0.28249509	0.094620026	0.17205995	0.2929343	0.27399393	0.19362683	0.22216017	0.058293911	0.13405156	0.4385249	0.056676563	0.11117345
11509	115.08	0.0045323987	0.64418713	0.14591512	-0.10608194	0.63007794	0.20116524	-0.21277133	0.62568909	0.012470198	-0.096580246	0.64806055	-0.18804366	0.010059903	0.64550372	-0.13257814	-0.012048393	1.0415424	-0.00051645422	-0.056508068	1.0987869	0.17060411	-0.05432584	1.0944716	-0.15754346	0.01152891	0.96405249	0.0039152064	-0.0067147846	1.0255874	-0.065108589	0.34887769	0.47022501	0.063598274	0.3373764	0.45241574	0.18235226	0.16689119	0.57870312	0.10420523	0.29581537	0.10768311	0.090622986	0.2824776	0.094637848	0.17203673	0.2929046	0.27403259	0.19353435	0.22214774	0.058277794	0.1340481	0.43851508	0.056683594	0.11117175
11510	115.09	0.0046063056	0.64404517	0.14593491	-0.10603066	0.63017072	0.2011937	-0.21271275	0.62595331	0.012444036	-0.096478844	0.64820209	-0.1880258	0.010101372	0.6458515	-0.1324409	-0.0098207493	1.0410574	-0.00034239852	-0.053904716	1.0984714	0.17076135	-0.051758041	1.0943046	-0.15739978	0.013213658	0.96338019	0.0040447049	-0.0046114101	1.0251339	-0.06494268	0.34877945	0.47021448	0.06343787	0.33728967	0.4524343	0.18218942	0.16679849	0.57869373	0.10407356	0.29580719	0.10767551	0.090607681	0.2824599	0.094653923	0.17201283	0.2928735	0.27406857	0.19345164	0.22213548	0.05826403	0.13404616	0.43850531	0.056689682	0.11117201
11511	115.1	0.0047205815	0.64388135	0.14596747	-0.10595629	0.63025104	0.20122304	-0.21264027	0.62622913	0.012430403	-0.096372475	0.64832953	-0.18799405	0.010200801	0.64611713	-0.13235446	-0.0074414663	1.0405309	-0.00016785964	-0.051128719	1.0981219	0.17092517	-0.048992847	1.09413	-0.15732861	0.015022142	0.96265393	0.0041767173	-0.0023524747	1.0246284	-0.064768433	0.34869705	0.47019708	0.063292301	0.33721341	0.45245001	0.18203439	0.16672533	0.57868384	0.10394751	0.29579929	0.10766794	0.090594284	0.28244513	0.094660652	0.1719888	0.29283679	0.27409906	0.19338007	0.22212399	0.058252319	0.13404546	0.43849597	0.056695141	0.11117404
11512	115.11	0.0048782077	0.64369885	0.14600655	-0.10585457	0.63032416	0.20124934	-0.21255028	0.62652185	0.012429419	-0.096258598	0.64844043	-0.18795421	0.010351773	0.64630054	-0.13231522	-0.0049091048	1.0399635	4.6290057e-06	-0.048173424	1.0977366	0.1710943	-0.046009727	1.0939542	-0.15737375	0.016958412	0.96187128	0.0043115015	6.4669378e-05	1.0240662	-0.064586197	0.34862903	0.47017145	0.063162178	0.33714633	0.45246072	0.1818898	0.16666995	0.57867377	0.10382878	0.29579184	0.10766054	0.090582489	0.2824332	0.094656769	0.1719653	0.29279214	0.27412198	0.19332056	0.22211362	0.058242222	0.13404561	0.43848727	0.056700218	0.11117728
11513	115.12	0.0050812464	0.64350116	0.14604355	-0.10572204	0.63039716	0.20126985	-0.21243979	0.62683667	0.012439469	-0.096132919	0.64853558	-0.18791396	0.010547379	0.64640594	-0.13231482	-0.0022217321	1.039353	0.00017318869	-0.045032085	1.0973119	0.17126694	-0.042786556	1.0937816	-0.15758569	0.019027916	0.96103143	0.004449954	0.0026420867	1.0234432	-0.064396751	0.34857285	0.47013809	0.063047417	0.33708716	0.45246512	0.18175826	0.16662923	0.57866345	0.1037183	0.29578488	0.10765345	0.090572121	0.28242081	0.094647705	0.17194458	0.29273938	0.27413611	0.1932733	0.2221044	0.058233349	0.13404634	0.43847952	0.056704948	0.11118121
